<svg width="246" height="236" viewBox="0 0 246 236" fill="none" xmlns="http://www.w3.org/2000/svg">
<g clip-path="url(#clip0_6_21)">
<path d="M114.429 33.1484C106.268 26.3106 94.7783 23.6892 85.7882 29.0237C95.909 34.0079 104.149 42.8919 109.051 54.1038C110.928 58.4355 112.617 63.4751 116.489 65.4771C118.898 66.7228 121.742 66.4823 124.236 65.4764C126.731 64.4704 128.95 62.7616 131.139 61.0708L131.795 60.9812C127.901 50.3545 122.59 39.9862 114.429 33.1484Z" fill="#F0F0F0"/>
<path d="M85.8605 29.2508C94.2545 29.5491 102.352 32.8397 109.004 38.6552C110.455 39.8783 111.727 41.3533 112.774 43.0258C113.747 44.6924 114.309 46.6242 114.401 48.6203C114.52 50.4796 114.452 52.3971 114.967 54.1912C115.243 55.1051 115.686 55.9426 116.267 56.6487C116.848 57.3548 117.554 57.9136 118.339 58.2884C120.274 59.28 122.407 59.4242 124.497 59.4829C126.818 59.5481 129.23 59.5742 131.341 60.8137C131.597 60.9639 131.787 60.505 131.532 60.3551C127.859 58.1985 123.568 59.6055 119.708 58.322C117.907 57.7231 116.254 56.5049 115.531 54.4667C114.899 52.6845 114.967 50.7071 114.861 48.8233C114.796 46.8745 114.312 44.9733 113.45 43.2858C112.482 41.5583 111.262 40.0302 109.842 38.7669C106.685 35.8652 103.145 33.5445 99.3523 31.8899C95.033 29.9742 90.4567 28.9108 85.8212 28.7455C85.5343 28.7354 85.5755 29.2408 85.8605 29.2508V29.2508Z" fill="white"/>
<path d="M106.959 36.6397C107.668 35.2415 107.915 33.6031 107.657 32.017C107.399 30.431 106.653 29.0006 105.551 27.9813C105.327 27.7759 105.035 28.1603 105.259 28.366C106.287 29.313 106.982 30.6455 107.22 32.123C107.457 33.6005 107.221 35.1256 106.555 36.4231C106.41 36.7053 106.815 36.9202 106.959 36.6397V36.6397Z" fill="white"/>
<path d="M114.45 47.6686C111.651 48.5561 108.659 48.2142 106.072 46.7111C105.816 46.562 105.625 47.0208 105.881 47.1698C108.576 48.7283 111.69 49.0769 114.601 48.146C114.879 48.0571 114.726 47.5802 114.45 47.6686Z" fill="white"/>
<path d="M95.0543 30.6463C94.8795 31.2521 94.5747 31.7992 94.1674 32.2384C93.7601 32.6776 93.263 32.9951 92.7207 33.1626C92.4424 33.2475 92.5952 33.7243 92.8717 33.64C93.4701 33.4518 94.0187 33.1004 94.4697 32.6162C94.9206 32.1321 95.2602 31.5301 95.4587 30.8628C95.4821 30.8017 95.484 30.7328 95.4642 30.6701C95.4444 30.6074 95.4043 30.5556 95.352 30.5252C95.2983 30.4969 95.2369 30.4937 95.1812 30.5163C95.1255 30.539 95.0799 30.5857 95.0544 30.6463H95.0543Z" fill="white"/>
<path d="M78.6603 67.1398C78.8354 67.0924 79.0105 67.045 79.1884 67.0004C81.5455 66.3768 83.9433 65.9715 86.3582 65.7884C86.5447 65.7708 86.734 65.7563 86.9206 65.7449C92.7428 65.374 98.5752 66.2325 104.121 68.2765C106.327 69.0922 108.476 70.0971 110.547 71.2825C113.409 72.9197 116.396 74.9531 119.476 75.4092C119.797 75.4609 120.121 75.49 120.445 75.4963L131.84 61.8962C131.852 61.8506 131.868 61.8077 131.88 61.7619L132.357 61.2425C132.254 61.1729 132.145 61.1032 132.042 61.0336C131.983 60.9929 131.92 60.9553 131.861 60.9147C131.82 60.8885 131.78 60.8625 131.744 60.8363C131.731 60.8275 131.717 60.8189 131.706 60.8131C131.671 60.7869 131.636 60.7668 131.603 60.7435C130.999 60.3522 130.392 59.965 129.781 59.5819C129.778 59.5789 129.778 59.5789 129.773 59.579C125.11 56.6736 120.193 54.1842 115.1 52.6203C114.946 52.5733 114.79 52.5233 114.632 52.4825C112.333 51.792 109.987 51.3159 107.619 51.0589C106.322 50.9229 105.02 50.8614 103.718 50.8747C100.352 50.9165 97.0136 51.5585 93.8242 52.777C87.4664 55.2072 81.8646 59.9167 78.8836 66.6248C78.8074 66.7965 78.7337 66.9652 78.6603 67.1398Z" fill="#F0F0F0"/>
<path d="M78.8381 67.2733C85.6985 61.7793 93.9108 58.8768 102.308 58.9781C104.117 58.9635 105.915 59.2722 107.639 59.893C109.3 60.5592 110.774 61.718 111.908 63.2488C112.99 64.6522 113.953 66.2297 115.317 67.3103C116.022 67.8517 116.82 68.2178 117.659 68.3847C118.498 68.5516 119.359 68.5155 120.184 68.2787C122.255 67.7495 124.035 66.4079 125.735 65.0273C127.623 63.4944 129.562 61.8683 131.906 61.4166C132.19 61.3618 132.098 60.8653 131.815 60.92C127.738 61.7059 125.058 65.76 121.295 67.371C119.539 68.1227 117.572 68.2788 115.913 67.1452C114.462 66.154 113.468 64.5282 112.383 63.0966C111.297 61.5848 109.901 60.3977 108.317 59.6389C106.627 58.9206 104.841 58.5338 103.037 58.4949C98.9759 58.3339 94.9178 58.8982 91.0113 60.167C86.5458 61.5871 82.3273 63.8631 78.5385 66.8966C78.304 67.0845 78.6051 67.4599 78.838 67.2733L78.8381 67.2733Z" fill="white"/>
<path d="M99.6061 58.765C99.4298 57.1646 98.7577 55.6874 97.7098 54.5972C96.6619 53.507 95.3065 52.8748 93.8856 52.8134C93.5981 52.8022 93.5691 53.3084 93.857 53.3197C95.1802 53.3741 96.4428 53.9631 97.4167 54.9806C98.3907 55.998 99.0119 57.3769 99.1683 58.8682C99.2026 59.1923 99.6402 59.0871 99.6061 58.765H99.6061Z" fill="white"/>
<path d="M111.442 62.4554C109.678 65.0757 107.108 66.8456 104.244 67.4121C103.96 67.468 104.052 67.9645 104.335 67.9087C107.314 67.3128 109.985 65.4648 111.816 62.7335C111.99 62.473 111.615 62.1963 111.442 62.4553V62.4554Z" fill="white"/>
<path d="M86.9195 62.1092C87.1015 62.7123 87.1486 63.3572 87.0565 63.986C86.9644 64.6148 86.7361 65.2079 86.392 65.7119C86.2148 65.9697 86.5899 66.2462 86.7659 65.99C87.1438 65.4312 87.3953 64.7759 87.4984 64.0814C87.6015 63.3869 87.553 62.6743 87.3573 62.0059C87.3436 61.9412 87.3085 61.8848 87.2594 61.8483C87.2103 61.8118 87.1508 61.7978 87.0929 61.8093C87.035 61.8233 86.9843 61.8626 86.9519 61.9188C86.9194 61.975 86.9078 62.0434 86.9195 62.1092V62.1092Z" fill="white"/>
<path d="M116.582 43.321H117.465V15.8814C117.465 13.7958 117.827 11.7306 118.531 9.80382C119.235 7.87701 120.266 6.12626 121.566 4.65154C122.866 3.17682 124.41 2.00701 126.109 1.2089C127.807 0.410787 129.628 1.12434e-06 131.467 0H182.721C184.56 -4.49717e-06 186.381 0.410773 188.08 1.20888C189.778 2.00699 191.322 3.17679 192.622 4.65151C193.922 6.12623 194.954 7.87697 195.657 9.80378C196.361 11.7306 196.723 13.7957 196.723 15.8813V166.418C196.723 170.63 195.248 174.669 192.622 177.647C189.996 180.626 186.435 182.299 182.721 182.299H131.467C127.753 182.299 124.192 180.626 121.566 177.647C118.94 174.669 117.465 170.63 117.465 166.418V62.8531H116.582V43.321Z" fill="#3F3D56"/>
<path d="M130.902 4.13179H137.592C137.285 4.98736 137.167 5.91563 137.25 6.83481C137.334 7.75399 137.615 8.63589 138.069 9.4028C138.523 10.1697 139.137 10.7981 139.856 11.2326C140.575 11.6671 141.377 11.8944 142.192 11.8945H171.555C172.37 11.8944 173.172 11.6671 173.891 11.2326C174.61 10.7981 175.223 10.1697 175.678 9.4028C176.132 8.63589 176.413 7.754 176.496 6.83481C176.58 5.91562 176.462 4.98735 176.154 4.13177H182.403C185.176 4.13177 187.836 5.38131 189.797 7.60549C191.758 9.82967 192.86 12.8463 192.86 15.9918V166.307C192.86 167.865 192.589 169.407 192.064 170.846C191.538 172.285 190.768 173.592 189.797 174.693C188.826 175.795 187.673 176.668 186.405 177.264C185.136 177.86 183.776 178.167 182.403 178.167H130.902C129.529 178.167 128.169 177.86 126.9 177.264C125.632 176.668 124.479 175.795 123.508 174.693C122.537 173.592 121.767 172.285 121.242 170.846C120.716 169.407 120.446 167.865 120.446 166.307V15.9918C120.446 12.8463 121.547 9.82967 123.508 7.60549C125.469 5.38131 128.129 4.13178 130.902 4.13179Z" fill="white"/>
<path d="M155.663 129.88C159.456 129.884 163.212 129.04 166.716 127.396C170.22 125.751 173.405 123.339 176.086 120.298C178.768 117.256 180.895 113.644 182.344 109.669C183.794 105.694 184.538 101.434 184.535 97.1327C184.54 91.0924 183.071 85.1685 180.289 80.0179C177.507 74.8672 173.522 70.6912 168.775 67.9528C165.334 65.9673 161.578 64.7829 157.727 64.4694C153.877 64.156 150.01 64.7198 146.354 66.1276C139.88 68.6299 134.4 73.6574 130.889 80.3146C127.377 86.9718 126.063 94.8265 127.181 102.48C128.298 110.133 131.775 117.088 136.991 122.106C142.207 127.124 148.824 129.879 155.663 129.88L155.663 129.88ZM155.663 65.6695C160.043 65.6548 164.362 66.83 168.26 69.0965C171.667 71.0653 174.678 73.8116 177.105 77.1631C179.532 80.5146 181.321 84.3989 182.361 88.5722C183.401 92.7455 183.67 97.1176 183.149 101.414C182.629 105.711 181.331 109.839 179.337 113.539C177.343 117.24 174.697 120.433 171.563 122.918C168.43 125.403 164.877 127.126 161.128 127.98C157.379 128.834 153.515 128.799 149.779 127.879C146.043 126.958 142.514 125.172 139.416 122.631C137.917 121.405 136.532 120.011 135.28 118.469C131.62 113.977 129.194 108.372 128.299 102.339C127.404 96.3071 128.08 90.1098 130.243 84.5064C132.406 78.9029 135.963 74.1365 140.478 70.7909C144.993 67.4452 150.27 65.6654 155.663 65.6695Z" fill="#F0F0F0"/>
<path d="M218.224 68.0704C217.431 68.1831 216.67 68.4915 215.994 68.974C215.318 69.4564 214.744 70.101 214.311 70.8626C213.879 71.6241 213.598 72.4839 213.49 73.3815C213.383 74.2791 213.449 75.1927 213.686 76.0578L204.094 85.1208L207.528 93.076L220.916 80.0615C222.171 79.5136 223.205 78.4625 223.822 77.1076C224.44 75.7526 224.598 74.1878 224.266 72.7098C223.934 71.2317 223.136 69.9431 222.022 69.088C220.909 68.2329 219.557 67.8709 218.224 68.0704L218.224 68.0704Z" fill="#FFB6B6"/>
<path d="M128.633 105.865C128.825 103.52 129.621 99.3029 130.296 97.7437C132.37 91.5847 145.775 86.5227 147.575 85.8702L148.032 80.1126L166.657 77.8396L169.02 85.2024L175.7 88.0448C176.153 88.2366 176.564 88.5399 176.902 88.9329C177.24 89.3259 177.497 89.7988 177.655 90.3178L183.648 92.2827L189.562 94.2218L210.108 77.801L211.078 78.5202L217.562 83.3189L218.562 84.0594L191.974 111.268L182.097 108.639L174.669 106.657L174.035 109.577L175.677 119.833C170.921 125.23 164.625 128.528 157.919 129.136C151.213 129.744 144.535 127.622 139.083 123.151L134.864 118.904C131.923 115.298 129.753 110.973 128.52 106.263L128.633 105.865Z" fill="#E4E4E4"/>
<path d="M151.492 73.1308C144.462 70.4904 140.649 61.8852 142.977 53.9105C145.305 45.9357 152.891 41.6114 159.922 44.2517C166.953 46.8921 170.766 55.4973 168.438 63.472C166.11 71.4468 158.523 75.7712 151.492 73.1308Z" fill="#FFB6B6"/>
<path d="M166.3 41.3511C164.996 39.2394 163.04 37.7612 160.819 37.2105C158.624 36.6983 156.339 37.1737 154.447 38.5362C152.389 37.5961 150.171 36.9724 147.991 37.2895C145.811 37.6066 143.675 38.9875 142.666 41.2625C142.454 41.8519 142.197 42.4189 141.897 42.9571C141.008 44.3017 139.357 44.4762 137.899 44.5407C138.636 45.0285 139.374 45.5162 140.111 46.0039C139.376 46.3923 138.641 46.7808 137.906 47.1693C138.907 47.6024 139.907 48.0355 140.907 48.4686C138.579 50.7897 138.016 54.9206 138.897 58.3839C139.732 61.6629 141.645 64.4231 143.782 66.7863C144.199 65.023 143.74 63.1113 143.435 61.2857C143.112 59.3568 143.061 57.1013 144.252 55.7395C145.055 54.8208 146.233 54.5433 147.344 54.3204C152.948 53.1962 158.604 52.4345 164.285 52.0389C165.045 51.9198 165.819 52.0095 166.543 52.3004C167.925 52.9972 168.48 54.9106 168.881 56.6072C169.073 53.6292 168.92 50.6355 168.425 47.7027C168.046 45.458 167.449 43.2113 166.3 41.3511Z" fill="#2F2E41"/>
<path d="M148.87 145.309H164.721C165.271 145.309 165.799 145.061 166.189 144.619C166.578 144.178 166.797 143.579 166.797 142.955C166.797 142.33 166.578 141.731 166.189 141.29C165.799 140.848 165.271 140.6 164.721 140.6H148.87C148.319 140.6 147.791 140.848 147.402 141.29C147.013 141.731 146.794 142.33 146.794 142.955C146.794 143.579 147.013 144.178 147.402 144.619C147.791 145.061 148.319 145.309 148.87 145.309Z" fill="#FDD3D1"/>
<path d="M200.884 19.3168H244.484C244.885 19.3161 245.271 19.1346 245.554 18.8121C245.838 18.4896 245.998 18.0525 245.998 17.5968C245.998 17.1411 245.838 16.704 245.554 16.3815C245.271 16.059 244.885 15.8775 244.484 15.8768H200.884C200.481 15.8768 200.096 16.058 199.811 16.3806C199.527 16.7031 199.367 17.1406 199.367 17.5968C199.367 18.053 199.527 18.4905 199.811 18.813C200.096 19.1356 200.481 19.3168 200.884 19.3168Z" fill="#FDD3D1"/>
<path d="M175.71 30.3024H244.484C244.886 30.3024 245.271 30.1212 245.556 29.7987C245.84 29.4761 246 29.0387 246 28.5825C246 28.1264 245.84 27.6889 245.556 27.3664C245.271 27.0438 244.886 26.8626 244.484 26.8626H175.71C175.308 26.8626 174.922 27.0438 174.638 27.3664C174.354 27.6889 174.194 28.1264 174.194 28.5825C174.194 29.0387 174.354 29.4761 174.638 29.7987C174.922 30.1212 175.308 30.3024 175.71 30.3024Z" fill="#FDD3D1"/>
<path d="M188.926 40.652H244.484C244.886 40.652 245.271 40.4708 245.556 40.1483C245.84 39.8258 246 39.3883 246 38.9321C246 38.476 245.84 38.0385 245.556 37.716C245.271 37.3934 244.886 37.2122 244.484 37.2122H188.926C188.524 37.2122 188.139 37.3934 187.854 37.716C187.57 38.0385 187.41 38.476 187.41 38.9321C187.41 39.3883 187.57 39.8258 187.854 40.1483C188.139 40.4708 188.524 40.652 188.926 40.652Z" fill="#CACACA"/>
<path d="M213.155 50.9635H244.484C244.886 50.9635 245.271 50.7823 245.556 50.4598C245.84 50.1372 246 49.6997 246 49.2436C246 48.7874 245.84 48.35 245.556 48.0274C245.271 47.7049 244.886 47.5237 244.484 47.5237H213.155C212.753 47.5237 212.367 47.7049 212.083 48.0274C211.799 48.35 211.639 48.7874 211.639 49.2436C211.639 49.6997 211.799 50.1372 212.083 50.4598C212.367 50.7823 212.753 50.9635 213.155 50.9635Z" fill="#CACACA"/>
<path d="M195.849 61.2742H244.484C244.885 61.2735 245.27 61.092 245.554 60.7695C245.838 60.4471 245.998 60.01 245.998 59.5543C245.998 59.0986 245.838 58.6616 245.554 58.3391C245.27 58.0166 244.885 57.8351 244.484 57.8344H195.849C195.447 57.8351 195.062 58.0166 194.778 58.3391C194.494 58.6616 194.335 59.0986 194.335 59.5543C194.335 60.01 194.494 60.4471 194.778 60.7695C195.062 61.092 195.447 61.2735 195.849 61.2742Z" fill="#CACACA"/>
<path d="M58.7825 229.543L62.6902 229.543L64.5493 212.447L58.7817 212.447L58.7825 229.543Z" fill="#9F616A"/>
<path d="M57.245 235.677L72.1643 235.677V235.463C72.1642 233.716 71.5523 232.041 70.4633 230.805C69.3743 229.57 67.8974 228.876 66.3573 228.876H66.3569L63.6317 226.531L58.5471 228.877L57.2447 228.877L57.245 235.677Z" fill="#2F2E41"/>
<path d="M61.0594 149.194L62.7829 125.359L64.1368 116.413L56.5563 114.514L54.0408 126.762L56.2324 149.856C55.7903 150.47 55.5203 151.22 55.4571 152.01C55.3939 152.8 55.5403 153.593 55.8775 154.288C56.2147 154.983 56.7274 155.547 57.3497 155.909C57.9719 156.271 58.6753 156.413 59.3694 156.318C60.0636 156.223 60.7168 155.894 61.2452 155.375C61.7736 154.856 62.153 154.169 62.3347 153.403C62.5164 152.637 62.492 151.827 62.2647 151.077C62.0375 150.327 61.6177 149.671 61.0594 149.194H61.0594Z" fill="#9F616A"/>
<path d="M79.54 229.543L83.4476 229.543L85.3068 212.447L79.5392 212.447L79.54 229.543Z" fill="#9F616A"/>
<path d="M85.7938 154.597L87.5262 157.996C87.5262 157.996 89.4297 158.586 88.8076 165.624C88.1855 172.662 88.1586 214.36 85.1474 219.491L84.6026 223.897L78.9162 224.513L78.7728 220.603L71.9925 166.288C71.9925 166.288 67.9992 219.609 64.6958 220.913L63.5027 225.356L58.2915 225.358L58.5992 220.123L58.2632 154.046L85.7938 154.597Z" fill="#2F2E41"/>
<path d="M87.6984 157.737L87.8182 157.702C84.2426 142.533 85.274 122.89 87.7987 101.798L87.7987 101.71L78.6716 92.2281H70.746L62.8891 97.9791C57.8097 100.86 56.6554 106.96 56.6443 107.021L56.6365 107.065L59.7487 119.386L57.4041 155.02L57.4015 155.061L57.4148 155.1C58.1736 157.282 60.2069 156.971 62.5613 156.611C64.9116 156.252 73.5726 159.539 76.2283 159.539C81.4181 159.539 87.3276 157.845 87.6984 157.737Z" fill="#E4E4E4"/>
<path d="M64.5344 102.782L61.1297 101.102L56.6438 107.34L53.0078 127.33L65.4623 125.19L64.5344 102.782Z" fill="#E4E4E4"/>
<path d="M116.904 139.643L101.339 123.511L95.9294 116.822L89.9663 122.46L96.967 132.212L114.411 144.378C114.569 145.151 114.927 145.852 115.439 146.392C115.951 146.932 116.593 147.286 117.284 147.409C117.975 147.532 118.682 147.417 119.315 147.08C119.948 146.744 120.478 146.2 120.837 145.519C121.195 144.838 121.366 144.051 121.327 143.259C121.288 142.467 121.042 141.707 120.619 141.075C120.196 140.444 119.616 139.97 118.954 139.715C118.292 139.459 117.578 139.435 116.904 139.643L116.904 139.643Z" fill="#9F616A"/>
<path d="M101.678 123.687L97.3668 117.337C97.3311 117.246 93.7545 108.181 90.6543 104.242C87.4742 100.201 84.9705 102.268 84.9455 102.29L84.8832 102.343L84.7102 117.264L96.6468 133.442L101.678 123.687Z" fill="#E4E4E4"/>
<path d="M68.3233 83.2968C67.6806 78.8043 70.3703 74.5715 74.3311 73.8425C78.2919 73.1135 82.0237 76.1643 82.6665 80.6567C83.3092 85.1492 80.6194 89.382 76.6587 90.111C72.6979 90.84 68.9661 87.7892 68.3233 83.2968Z" fill="#9F616A"/>
<path d="M82.1371 80.7534C82.1371 80.7534 82.1953 77.8564 82.5182 76.5745C82.8411 75.2926 83.4869 74.1939 83.164 74.1939C82.8411 74.1939 82.6796 73.2782 82.6796 73.2782C82.6796 73.2782 82.3567 73.0951 82.1953 73.2782C82.0338 73.4614 81.8724 71.9964 81.8724 71.9964C81.8724 71.9964 81.7109 71.447 81.5495 71.8132C81.3881 72.1795 81.388 71.9963 81.2266 71.447C81.0651 70.8976 80.2578 70.5313 80.2578 70.5313C80.2578 70.5313 77.1902 70.7145 76.7058 69.982C76.2215 69.2495 70.7321 69.7988 69.6019 70.7144C68.4717 71.6301 63.4667 74.9264 64.2739 77.6733C65.0812 80.4202 67.405 86.7448 67.9874 87.3789C68.9082 88.3817 69.5457 88.7432 73.903 89.7266C74.7557 89.9191 79.1082 86.7618 79.1082 86.2124C79.1082 85.6631 78.5835 83.9208 79.427 83.6817C80.702 83.3201 80.8454 85.1485 81.1684 84.5991C81.4913 84.0497 82.1371 80.7534 82.1371 80.7534Z" fill="#2F2E41"/>
<path d="M78.0025 235.677L92.9218 235.677V235.463C92.9216 233.716 92.3098 232.041 91.2208 230.805C90.1318 229.57 88.6548 228.876 87.1148 228.876H87.1144L84.3892 226.531L79.3046 228.877L78.0022 228.877L78.0025 235.677Z" fill="#2F2E41"/>
<path d="M0.449371 236H244.744C244.863 236 244.977 235.946 245.062 235.851C245.146 235.755 245.193 235.625 245.193 235.49C245.193 235.355 245.146 235.225 245.062 235.13C244.977 235.034 244.863 234.981 244.744 234.981H0.449371C0.3302 234.981 0.215897 235.034 0.131622 235.13C0.047348 235.225 0 235.355 0 235.49C0 235.625 0.047348 235.755 0.131622 235.851C0.215897 235.946 0.3302 236 0.449371 236Z" fill="#CACACA"/>
</g>
<defs>
<clipPath id="clip0_6_21">
<rect width="246" height="236" fill="white" transform="matrix(-1 0 0 1 246 0)"/>
</clipPath>
</defs>
</svg>
